<?xml version="1.0" standalone="no"?>
<!DOCTYPE svg PUBLIC "-//W3C//DTD SVG 20010904//EN"
 "http://www.w3.org/TR/2001/REC-SVG-20010904/DTD/svg10.dtd">
<svg version="1.0" xmlns="http://www.w3.org/2000/svg"
 width="413.000000pt" height="604.000000pt" viewBox="0 0 413.000000 604.000000"
 preserveAspectRatio="xMidYMid meet">

<g transform="translate(0.000000,604.000000) scale(0.100000,-0.100000)"
fill="#000000" stroke="none">
<path d="M3158 6000 c-27 -17 -48 -34 -48 -39 0 -36 -70 -53 -106 -26 -10 8
-35 15 -55 15 -20 0 -52 6 -70 13 -19 8 -59 13 -89 12 -123 -5 -232 -19 -245
-31 -37 -37 -89 -63 -113 -57 -18 4 -29 1 -39 -13 -7 -10 -26 -18 -41 -19 -24
0 -28 -6 -39 -45 -6 -25 -12 -65 -12 -89 -1 -31 -8 -52 -27 -74 -20 -24 -24
-37 -20 -63 11 -54 0 -60 -570 -335 -56 -27 -107 -55 -114 -64 -6 -8 -37 -27
-67 -42 -31 -16 -60 -38 -66 -50 -6 -13 -16 -23 -24 -23 -22 0 -25 -23 -8 -85
17 -67 10 -85 -37 -85 -38 0 -73 -24 -89 -62 -12 -29 -11 -32 17 -54 16 -13
32 -24 37 -24 16 0 6 -29 -12 -35 -12 -4 -21 -19 -26 -43 -8 -46 -55 -139
-110 -217 -23 -33 -61 -93 -84 -133 -56 -97 -88 -132 -183 -198 -91 -65 -99
-75 -133 -173 -24 -71 -44 -105 -97 -162 -34 -37 -44 -37 -69 6 -12 19 -29 35
-38 35 -27 0 -111 -92 -111 -121 0 -17 -9 -30 -29 -42 -37 -22 -44 -21 -36 3
6 20 -2 25 -34 20 -17 -2 -31 18 -31 45 0 38 -21 95 -44 122 -24 28 -109 56
-124 41 -5 -5 -7 -31 -4 -57 l4 -48 -36 -7 c-45 -9 -49 -15 -35 -68 6 -24 13
-65 15 -91 1 -27 8 -55 14 -62 7 -8 14 -59 16 -117 4 -112 1 -118 -53 -118
-27 0 -32 -4 -39 -32 -3 -18 -17 -46 -30 -61 -30 -35 -30 -39 1 -121 24 -63
24 -68 9 -98 -12 -23 -13 -36 -6 -52 6 -11 14 -32 18 -46 3 -14 13 -32 20 -41
26 -29 64 -138 64 -183 0 -33 -7 -52 -25 -74 -31 -37 -73 -127 -77 -166 -3
-28 3 -33 71 -71 41 -23 76 -46 78 -52 3 -7 -7 -29 -20 -50 -23 -37 -24 -42
-16 -143 4 -58 17 -141 28 -185 17 -72 35 -190 48 -317 3 -26 0 -62 -6 -81 -7
-19 -14 -91 -17 -160 -4 -99 -1 -137 11 -172 13 -40 13 -50 1 -79 -18 -44 -6
-191 22 -261 11 -27 36 -89 55 -136 44 -110 58 -243 33 -304 -15 -35 -15 -45
-1 -109 24 -108 86 -219 113 -202 5 3 12 16 14 28 11 51 69 264 78 285 5 11
36 58 69 103 49 65 61 89 61 118 0 21 9 170 21 332 l21 295 111 168 c60 92
113 167 118 167 4 0 10 -8 13 -18 3 -9 23 -36 45 -60 35 -38 43 -42 84 -42 25
0 49 -5 52 -10 4 -7 29 -8 68 -4 59 6 108 27 152 64 16 14 32 16 84 11 61 -7
65 -9 118 -64 30 -31 60 -57 67 -57 18 0 36 -21 36 -43 0 -24 37 -77 55 -77 7
0 22 -16 34 -35 11 -19 27 -35 34 -35 8 0 26 -9 40 -20 22 -17 27 -32 33 -90
8 -79 15 -93 64 -118 44 -22 50 -52 17 -95 -13 -18 -32 -57 -42 -87 -9 -30
-28 -77 -40 -105 -68 -148 -75 -168 -65 -181 25 -30 144 -66 235 -71 49 -2
110 -11 135 -18 25 -7 62 -16 83 -20 79 -13 110 -42 68 -64 -10 -6 -25 -25
-34 -43 -9 -18 -27 -48 -41 -67 -30 -41 -33 -68 -8 -75 9 -3 49 -8 88 -12 66
-6 73 -5 92 17 12 12 24 31 27 40 3 10 16 21 28 25 12 4 33 15 46 26 24 18 25
18 45 -1 12 -10 35 -26 51 -34 51 -27 105 -84 130 -139 14 -29 25 -59 25 -65
0 -7 11 -20 25 -29 31 -20 68 -12 101 21 l24 24 25 -24 c28 -29 42 -31 66 -9
15 14 21 14 53 0 20 -8 36 -22 36 -30 0 -9 8 -16 18 -16 20 0 62 39 62 59 0
15 81 91 97 91 6 0 14 9 18 19 5 17 10 18 42 9 27 -7 39 -6 49 4 20 20 19 107
-1 153 -15 33 -18 73 -20 225 -1 104 -6 194 -12 205 -20 38 -23 86 -8 121 14
35 24 39 95 35 51 -3 128 67 114 104 -5 12 -14 16 -33 12 -14 -3 -34 -2 -44 2
-16 6 -16 7 0 31 14 20 18 47 19 126 l0 101 -28 11 c-15 5 -28 18 -28 27 0 13
-7 15 -32 10 -30 -5 -35 -2 -57 31 l-24 38 54 51 c30 29 76 77 104 108 41 48
55 57 82 57 57 0 225 40 284 67 54 25 58 29 83 93 14 37 26 72 26 78 0 6 15
25 33 43 l32 32 -3 111 c-3 84 -7 114 -19 123 -13 10 -13 21 -3 80 6 37 14 94
17 126 3 31 9 57 14 57 5 0 25 25 44 56 33 52 36 61 30 105 -5 36 -2 62 15
106 19 54 21 76 18 225 l-3 165 -53 107 c-30 58 -59 106 -65 106 -6 0 -34 14
-63 32 -40 24 -57 42 -75 81 -22 45 -81 107 -103 107 -5 0 -19 8 -30 18 -12
10 -39 24 -61 31 -44 16 -55 25 -72 62 -10 24 -8 30 23 60 19 18 34 39 34 46
0 28 -51 110 -103 165 -39 41 -78 69 -148 103 -98 49 -165 96 -211 148 l-28
31 31 32 32 33 -18 66 c-16 58 -22 67 -45 72 -45 8 -47 71 -9 191 16 54 34
111 40 128 5 17 9 48 9 70 0 32 6 46 31 70 17 16 38 43 46 59 9 17 25 36 35
44 11 7 23 24 28 37 15 38 35 345 33 500 -1 128 -4 147 -28 208 -23 57 -26 75
-19 114 5 26 7 54 6 62 -8 65 -14 83 -33 110 -30 39 -69 39 -131 0z m109 -18
c26 -35 33 -94 20 -154 -9 -42 -7 -53 18 -109 26 -59 28 -70 29 -223 0 -89 -5
-233 -11 -321 -12 -157 -13 -160 -42 -186 -16 -15 -32 -35 -35 -46 -3 -10 -22
-35 -42 -55 -29 -31 -36 -46 -41 -93 -3 -30 -10 -58 -14 -61 -5 -3 -9 -17 -9
-31 0 -33 -29 -131 -41 -138 -5 -4 -9 -44 -9 -89 l0 -84 34 -6 c31 -6 35 -11
46 -57 12 -50 12 -51 -19 -83 -17 -17 -31 -36 -31 -41 1 -15 50 -67 105 -112
28 -22 95 -63 151 -91 103 -51 162 -106 221 -201 l22 -36 -46 -47 c-37 -38
-44 -50 -34 -61 6 -8 9 -22 5 -31 -5 -12 7 -22 49 -42 31 -13 66 -27 79 -29
13 -3 28 -11 33 -18 6 -8 19 -17 30 -20 33 -11 68 -50 93 -103 18 -38 36 -56
77 -81 29 -18 57 -33 62 -33 12 0 74 -115 99 -184 31 -86 34 -301 4 -378 -12
-33 -20 -77 -20 -116 0 -66 -11 -90 -65 -152 -17 -18 -24 -43 -28 -90 -3 -36
-8 -74 -10 -85 -18 -82 -18 -97 -1 -116 26 -29 28 -215 3 -233 -18 -12 -70
-118 -82 -168 -5 -20 -20 -33 -55 -48 -51 -23 -195 -56 -283 -65 -48 -5 -58
-10 -73 -36 -9 -16 -56 -68 -104 -115 l-86 -85 18 -27 c9 -15 23 -40 29 -55
10 -23 16 -27 38 -22 17 4 30 1 36 -7 4 -7 17 -18 28 -24 17 -10 20 -23 22
-95 2 -76 0 -87 -23 -117 -36 -46 -26 -62 38 -62 l52 0 -29 -30 c-22 -23 -38
-30 -66 -30 -73 0 -100 -11 -115 -46 -18 -43 -18 -91 1 -144 11 -32 15 -82 13
-199 -1 -126 2 -167 17 -216 20 -65 26 -133 13 -141 -4 -3 -22 3 -39 13 -30
17 -32 17 -43 0 -6 -11 -37 -44 -68 -75 -32 -30 -61 -65 -64 -76 -9 -29 -26
-37 -39 -20 -5 8 -28 21 -50 29 -35 12 -43 12 -64 -2 -24 -15 -26 -15 -55 20
-25 29 -34 34 -48 26 -10 -5 -18 -19 -18 -30 0 -24 -45 -47 -67 -33 -8 5 -23
30 -32 55 -27 71 -65 118 -128 161 -32 22 -68 49 -81 61 l-22 21 -30 -22 c-16
-12 -41 -27 -55 -32 -13 -5 -35 -25 -47 -45 l-23 -36 -67 3 c-37 2 -69 6 -73
9 -7 8 58 116 90 149 14 14 25 34 25 43 0 20 -68 57 -105 57 -14 0 -53 9 -85
20 -35 12 -71 18 -85 14 -36 -9 -162 14 -222 41 l-52 24 31 78 c17 43 37 85
44 93 6 8 21 46 33 84 12 37 32 81 46 98 43 51 26 106 -39 128 -34 11 -35 13
-41 78 -7 85 -21 112 -69 137 -21 11 -43 30 -50 43 -7 13 -27 32 -44 42 -18
11 -32 26 -32 35 0 8 -8 30 -17 50 -12 25 -23 35 -39 35 -13 0 -27 6 -31 14
-4 8 -30 33 -57 57 -39 34 -57 43 -92 45 -24 1 -53 6 -65 9 -15 5 -29 -1 -53
-24 -17 -16 -48 -37 -68 -45 -41 -18 -123 -21 -133 -7 -3 6 -23 9 -45 8 -47
-2 -71 17 -112 91 -17 28 -34 49 -39 46 -6 -3 -64 -87 -130 -186 l-120 -180
-19 -261 c-34 -459 -23 -404 -94 -500 -53 -72 -65 -97 -85 -173 -13 -49 -31
-116 -40 -149 l-17 -60 -27 46 c-27 46 -50 130 -50 184 0 17 5 54 11 83 19 87
-12 242 -73 362 -31 61 -49 129 -48 188 0 34 -4 65 -9 68 -5 3 -2 17 8 31 17
27 16 43 -5 162 -7 36 -7 69 0 99 5 25 7 58 4 74 -4 15 1 53 10 85 17 58 17
79 -6 203 -5 30 -9 69 -9 87 0 17 -9 64 -20 105 -11 40 -25 123 -32 185 l-12
112 27 40 c15 22 27 46 27 53 0 13 -70 64 -127 92 -18 9 -33 22 -33 29 0 19
55 128 84 166 23 31 25 40 19 90 -7 62 -34 140 -64 182 -10 15 -19 36 -19 46
0 10 -5 24 -11 30 -7 7 -7 22 2 51 10 36 9 48 -10 100 -26 73 -26 84 -2 106
11 10 23 31 26 47 5 23 13 30 43 35 20 4 42 10 48 15 19 15 4 238 -18 266 -5
6 -6 23 -2 37 3 15 2 39 -4 54 -6 15 -13 39 -16 54 -5 24 -2 27 32 35 37 9 37
9 34 56 l-3 47 33 -6 c59 -11 88 -55 94 -140 1 -26 64 -104 83 -104 8 0 33 12
57 28 33 20 44 33 44 52 0 36 77 112 90 90 5 -8 10 -20 10 -26 0 -14 23 -24
57 -24 26 0 66 36 95 85 10 17 22 37 27 45 5 8 24 51 41 96 31 81 31 81 116
139 96 66 136 111 200 225 25 44 60 99 78 123 43 56 93 156 102 202 3 20 14
39 23 42 49 18 47 47 -5 81 -18 12 -34 27 -34 33 0 17 49 61 61 53 14 -8 89
25 89 40 0 6 -7 36 -15 66 -18 68 -18 70 0 70 9 0 20 11 25 24 4 13 20 26 34
30 14 3 26 11 26 16 0 6 7 10 15 10 9 0 27 11 40 24 13 14 94 59 180 100 85
42 225 110 310 152 180 88 228 125 219 172 -5 25 -1 38 21 63 20 25 26 40 22
63 -2 17 0 52 7 78 8 38 14 47 28 42 10 -3 26 4 37 15 12 12 34 21 50 21 19 0
47 14 78 37 41 32 58 38 118 45 116 12 200 9 240 -7 20 -9 45 -13 55 -10 11 4
36 -3 58 -16 35 -20 44 -22 78 -11 26 8 45 22 56 41 15 27 78 69 104 71 5 0
19 -12 31 -28z"/>
</g>
</svg>
